<?xml version="1.0" encoding="UTF-8" standalone="no"?>
<svg
   xmlns:dc="http://purl.org/dc/elements/1.1/"
   xmlns:cc="http://creativecommons.org/ns#"
   xmlns:rdf="http://www.w3.org/1999/02/22-rdf-syntax-ns#"
   xmlns:svg="http://www.w3.org/2000/svg"
   xmlns="http://www.w3.org/2000/svg"
   viewBox="0 0 321.888 94.78907"
   height="94.78907"
   width="321.888"
   xml:space="preserve"
   id="svg2"
   version="1.1"><metadata
     id="metadata8"><rdf:RDF><cc:Work
         rdf:about=""><dc:format>image/svg+xml</dc:format><dc:type
           rdf:resource="http://purl.org/dc/dcmitype/StillImage" /></cc:Work></rdf:RDF></metadata><defs
     id="defs6"><clipPath
       id="clipPath18"
       clipPathUnits="userSpaceOnUse"><path
         id="path16"
         d="M 0,71.092 H 241.416 V 0 H 0 Z" /></clipPath></defs><g
     transform="matrix(1.3333333,0,0,-1.3333333,0,94.789067)"
     id="g10"><g
       id="g12"><g
         clip-path="url(#clipPath18)"
         id="g14"><text
           id="text24"
           style="font-variant:normal;font-weight:normal;font-stretch:normal;font-size:35.75139999px;font-family:Intro;-inkscape-font-specification:Intro;writing-mode:lr-tb;fill:#231f20;fill-opacity:1;fill-rule:nonzero;stroke:none"
           transform="matrix(1,0,0,-1,63.8594,40.7036)"><tspan
             id="tspan20"
             y="0"
             x="0 26.56329 45.976299 76.293488">HTML</tspan><tspan
             id="tspan22"
             y="31.818747"
             x="0 24.096443 51.1245 76.293488 102.1775 123.41383 153.76677">ACADEMY</tspan></text>
</g></g><g
       transform="translate(0,65.9097)"
       id="g26"><path
         id="path28"
         style="fill:#e34e25;fill-opacity:1;fill-rule:nonzero;stroke:none"
         d="M 0,0 V -43.785 L 23.342,-57.803 V 2.605 Z" /></g><g
       transform="translate(23.3428,8.1074)"
       id="g30"><path
         id="path32"
         style="fill:#f16529;fill-opacity:1;fill-rule:nonzero;stroke:none"
         d="M 0,0 23.345,14.018 V 57.802 L 0,60.407" /></g><g
       transform="translate(34.7393,44.4961)"
       id="g34"><path
         id="path36"
         style="fill:#d04822;fill-opacity:1;fill-rule:nonzero;stroke:none"
         d="M 0,0 -11.395,-5.113 V -18.887 L 0,-13.772 Z" /></g><g
       transform="translate(11.9482,44.4961)"
       id="g38"><path
         id="path40"
         style="fill:#f69d78;fill-opacity:1;fill-rule:nonzero;stroke:none"
         d="M 0,0 11.395,-5.113 V -18.887 L 0,-13.772 Z" /></g><g
       transform="translate(5.8223,47.2446)"
       id="g42"><path
         id="path44"
         style="fill:#ffffff;fill-opacity:1;fill-rule:nonzero;stroke:none"
         d="M 0,0 17.521,7.602 35.041,0 17.522,-7.862 Z" /></g><g
       transform="translate(11.9482,30.7236)"
       id="g46"><path
         id="path48"
         style="fill:#ffffff;fill-opacity:1;fill-rule:nonzero;stroke:none"
         d="M 0,0 11.395,4.944 22.791,0 11.396,-5.114 Z" /></g></g></svg>