<?xml version="1.0" encoding="UTF-8" standalone="no"?>
<svg
   xmlns:dc="http://purl.org/dc/elements/1.1/"
   xmlns:cc="http://creativecommons.org/ns#"
   xmlns:rdf="http://www.w3.org/1999/02/22-rdf-syntax-ns#"
   xmlns:svg="http://www.w3.org/2000/svg"
   xmlns="http://www.w3.org/2000/svg"
   viewBox="0 0 226.65868 41.333332"
   height="41.333332"
   width="226.65868"
   xml:space="preserve"
   id="svg2"
   version="1.1"><metadata
     id="metadata8"><rdf:RDF><cc:Work
         rdf:about=""><dc:format>image/svg+xml</dc:format><dc:type
           rdf:resource="http://purl.org/dc/dcmitype/StillImage" /></cc:Work></rdf:RDF></metadata><defs
     id="defs6"><clipPath
       id="clipPath18"
       clipPathUnits="userSpaceOnUse"><path
         id="path16"
         d="M 0,31 H 169.994 V 0 H 0 Z" /></clipPath></defs><g
     transform="matrix(1.3333333,0,0,-1.3333333,0,41.333333)"
     id="g10"><g
       id="g12"><g
         clip-path="url(#clipPath18)"
         id="g14"><g
           transform="translate(14.6426,13.8096)"
           id="g20"><path
             id="path22"
             style="fill:#231f20;fill-opacity:1;fill-rule:nonzero;stroke:none"
             d="m 0,0 c -0.225,-0.274 -0.485,-0.506 -0.782,-0.692 -0.296,-0.189 -0.674,-0.282 -1.133,-0.282 -0.434,0 -0.799,0.145 -1.095,0.437 -0.297,0.293 -0.445,0.765 -0.445,1.413 0,0.491 0.088,0.919 0.264,1.282 0.174,0.362 0.417,0.66 0.725,0.894 0.292,0.224 0.668,0.439 1.127,0.643 0.459,0.205 0.922,0.386 1.39,0.544 z m 6.237,-1.349 c -0.249,0 -0.526,0.006 -0.829,0.019 -0.304,0.014 -0.526,0.052 -0.668,0.12 -0.232,0.106 -0.405,0.269 -0.517,0.485 -0.112,0.217 -0.169,0.51 -0.169,0.886 0,0.407 0.019,1.254 0.057,2.545 0.036,1.289 0.056,2.402 0.056,3.342 0,0.89 -0.152,1.612 -0.456,2.164 C 3.407,8.767 2.998,9.188 2.483,9.479 1.942,9.777 1.335,9.977 0.662,10.07 c -0.674,0.097 -1.414,0.145 -2.221,0.145 -0.582,0 -1.214,-0.07 -1.896,-0.206 C -4.137,9.872 -4.739,9.679 -5.263,9.429 -5.796,9.188 -6.247,8.882 -6.617,8.511 -6.987,8.142 -7.171,7.725 -7.171,7.259 c 0,-0.54 0.178,-0.98 0.537,-1.317 0.359,-0.336 0.888,-0.504 1.589,-0.504 0.492,0 0.857,0.044 1.094,0.136 0.238,0.093 0.452,0.221 0.645,0.388 0.142,0.124 0.25,0.293 0.325,0.504 0.075,0.213 0.113,0.389 0.113,0.529 0,0.318 -0.059,0.645 -0.175,0.986 -0.117,0.341 -0.188,0.594 -0.213,0.761 0.15,0.109 0.347,0.214 0.592,0.319 0.246,0.104 0.552,0.157 0.917,0.157 0.408,0 0.737,-0.093 0.987,-0.276 C -0.511,8.76 -0.328,8.535 -0.211,8.269 -0.104,8.035 -0.033,7.748 0,7.407 0.034,7.067 0.051,6.793 0.051,6.584 V 5.388 C -0.433,5.155 -1.199,4.89 -2.249,4.593 -3.298,4.298 -4.197,4.013 -4.947,3.738 -5.338,3.589 -5.699,3.427 -6.028,3.25 -6.357,3.075 -6.646,2.856 -6.896,2.588 -7.171,2.297 -7.383,1.961 -7.533,1.584 -7.684,1.204 -7.758,0.745 -7.758,0.203 c 0,-0.941 0.341,-1.696 1.025,-2.268 0.682,-0.571 1.507,-0.855 2.473,-0.855 0.65,0 1.156,0.046 1.518,0.136 0.362,0.093 0.739,0.231 1.131,0.412 0.3,0.143 0.581,0.312 0.843,0.512 0.263,0.2 0.536,0.441 0.819,0.724 h 0.074 c 0.174,-0.566 0.502,-1 0.983,-1.304 0.482,-0.304 1.233,-0.455 2.254,-0.455 0.556,0 1.083,0.067 1.58,0.2 0.499,0.132 0.93,0.278 1.295,0.435 z m -20.88,18.539 h 26.925 v -31 L -1.18,-8.825 -14.643,-13.81 Z" /></g><g
           transform="translate(48.6665,18.2402)"
           id="g24"><path
             id="path26"
             style="fill:#231f20;fill-opacity:1;fill-rule:nonzero;stroke:none"
             d="M 0,0 H 4.997 V -0.399 C 4.997,-1.308 4.89,-2.111 4.675,-2.811 4.467,-3.458 4.114,-4.064 3.618,-4.628 2.496,-5.892 1.068,-6.523 -0.666,-6.523 c -1.691,0 -3.14,0.611 -4.346,1.833 -1.206,1.226 -1.809,2.699 -1.809,4.417 0,1.753 0.613,3.242 1.841,4.463 1.227,1.227 2.72,1.84 4.479,1.84 0.945,0 1.827,-0.192 2.647,-0.577 0.783,-0.384 1.553,-1.009 2.31,-1.874 l -1.3,-1.245 c -0.992,1.321 -2.2,1.981 -3.626,1.981 -1.279,0 -2.352,-0.441 -3.218,-1.323 -0.867,-0.867 -1.3,-1.953 -1.3,-3.258 0,-1.347 0.483,-2.457 1.448,-3.328 0.904,-0.809 1.883,-1.214 2.937,-1.214 0.898,0 1.705,0.302 2.42,0.906 0.715,0.609 1.115,1.339 1.198,2.187 l -3.015,0 z" /></g><g
           transform="translate(60.9897,24.0361)"
           id="g28"><path
             id="path30"
             style="fill:#231f20;fill-opacity:1;fill-rule:nonzero;stroke:none"
             d="m 0,0 v -10.377 h 3.555 v -1.715 h -5.38 l 0,12.092 z" /></g><g
           transform="translate(70.9404,24.0361)"
           id="g32"><path
             id="path34"
             style="fill:#231f20;fill-opacity:1;fill-rule:nonzero;stroke:none"
             d="m 0,0 v -7.278 c 0,-1.038 0.169,-1.797 0.509,-2.278 0.506,-0.693 1.219,-1.04 2.138,-1.04 0.924,0 1.639,0.347 2.145,1.04 0.34,0.465 0.51,1.224 0.51,2.278 V 0 h 1.824 v -7.784 c 0,-1.275 -0.397,-2.324 -1.19,-3.149 -0.893,-0.919 -1.989,-1.379 -3.289,-1.379 -1.3,0 -2.394,0.46 -3.281,1.379 -0.794,0.825 -1.191,1.874 -1.191,3.149 l 0,7.784 z" /></g><g
           transform="translate(85.9966,19.2119)"
           id="g36"><path
             id="path38"
             style="fill:#231f20;fill-opacity:1;fill-rule:nonzero;stroke:none"
             d="M 0,0 4.707,4.824 H 7.142 L 1.676,-0.65 7.173,-7.268 H 4.73 L 0.376,-1.888 0,-2.264 V -7.268 H -1.825 V 4.824 l 1.825,0 z" /></g><g
           transform="translate(99.8311,19.3057)"
           id="g40"><path
             id="path42"
             style="fill:#231f20;fill-opacity:1;fill-rule:nonzero;stroke:none"
             d="M 0,0 H 5.215 V 4.73 H 7.04 V -7.361 H 5.215 v 5.646 H 0 V -7.361 H -1.825 V 4.73 H 0 Z" /></g><g
           transform="translate(119.3354,16.5957)"
           id="g44"><path
             id="path46"
             style="fill:#231f20;fill-opacity:1;fill-rule:nonzero;stroke:none"
             d="M 0,0 -1.793,4.111 -3.673,0 Z M 0.744,-1.715 H -4.433 L -5.779,-4.651 H -7.745 L -1.762,8.199 4.01,-4.651 H 2.013 Z" /></g><g
           transform="translate(128.064,11.9443)"
           id="g48"><path
             id="path50"
             style="fill:#231f20;fill-opacity:1;fill-rule:nonzero;stroke:none"
             d="M 0,0 V 12.914 L 8.818,3.688 v 8.404 h 1.825 V -0.736 L 1.825,8.466 V 0 Z" /></g><g
           transform="translate(146.6367,19.2119)"
           id="g52"><path
             id="path54"
             style="fill:#231f20;fill-opacity:1;fill-rule:nonzero;stroke:none"
             d="M 0,0 4.707,4.824 H 7.142 L 1.676,-0.65 7.173,-7.268 H 4.73 L 0.376,-1.888 0,-2.264 V -7.268 H -1.825 V 4.824 l 1.825,0 z" /></g><g
           transform="translate(159.1943,18.0254)"
           id="g56"><path
             id="path58"
             style="fill:#231f20;fill-opacity:1;fill-rule:nonzero;stroke:none"
             d="m 0,0 c 0,-1.336 0.449,-2.434 1.347,-3.294 0.893,-0.861 1.924,-1.291 3.093,-1.291 1.269,0 2.339,0.438 3.211,1.314 0.872,0.887 1.308,1.966 1.308,3.24 0,1.288 -0.431,2.368 -1.292,3.239 C 6.811,4.084 5.75,4.522 4.487,4.522 3.229,4.522 2.167,4.084 1.3,3.208 0.433,2.342 0,1.272 0,0 m -1.84,0.02 c 0,1.702 0.624,3.164 1.871,4.385 1.243,1.222 2.736,1.832 4.48,1.832 1.723,0 3.2,-0.616 4.432,-1.847 1.238,-1.233 1.856,-2.713 1.856,-4.441 0,-1.739 -0.621,-3.214 -1.863,-4.425 -1.248,-1.216 -2.754,-1.825 -4.519,-1.825 -1.561,0 -2.963,0.541 -4.206,1.621 -1.367,1.197 -2.051,2.762 -2.051,4.7" /></g></g></g></g></svg>